<svg width="29" height="17" viewBox="0 0 29 17" fill="none" xmlns="http://www.w3.org/2000/svg">
<path d="M0.0318908 16L0.0318908 0.489999L6.76389 0.489999C8.46522 0.489999 9.77789 0.900666 10.7019 1.722C11.6259 2.52867 12.0879 3.66533 12.0879 5.132C12.0879 6.29067 11.7872 7.25133 11.1859 8.014C10.5846 8.762 9.71922 9.268 8.58989 9.532C9.33789 9.76667 9.95389 10.3313 10.4379 11.226L13.0339 16H9.93189L7.24789 11.05C6.98389 10.566 6.66856 10.236 6.30189 10.06C5.94989 9.884 5.49522 9.796 4.93789 9.796L2.84789 9.796L2.84789 16H0.0318908ZM2.84789 7.706L6.27989 7.706C8.33322 7.706 9.35989 6.87 9.35989 5.198C9.35989 3.54067 8.33322 2.712 6.27989 2.712L2.84789 2.712V7.706ZM21.5599 16.22C19.4333 16.22 17.8053 15.67 16.6759 14.57C15.5613 13.4553 15.0039 11.8127 15.0039 9.642L15.0039 0.489999L17.8199 0.489999L17.8199 9.62C17.8199 11.0133 18.1353 12.062 18.7659 12.766C19.4113 13.4553 20.3426 13.8 21.5599 13.8C24.0386 13.8 25.2779 12.4067 25.2779 9.62L25.2779 0.489999H28.0719L28.0719 9.642C28.0719 11.8127 27.5219 13.4553 26.4219 14.57C25.3219 15.67 23.7013 16.22 21.5599 16.22Z" fill="#74A2B2"/>
</svg>
